<?xml version="1.0" encoding="UTF-8" standalone="no"?>
<!-- Created with Inkscape (http://www.inkscape.org/) -->

<svg
   version="1.1"
   id="svg519"
   width="400"
   height="380"
   viewBox="0 0 400 380"
   sodipodi:docname="banplus.svg"
   inkscape:export-filename="banplus.png"
   inkscape:export-xdpi="96"
   inkscape:export-ydpi="96"
   inkscape:version="1.2.2 (b0a8486541, 2022-12-01)"
   xmlns:inkscape="http://www.inkscape.org/namespaces/inkscape"
   xmlns:sodipodi="http://sodipodi.sourceforge.net/DTD/sodipodi-0.dtd"
   xmlns="http://www.w3.org/2000/svg"
   xmlns:svg="http://www.w3.org/2000/svg">
  <g
     id="g1680"
     style="fill:none;stroke-width:2;stroke-dasharray:none">
    <g
       inkscape:groupmode="layer"
       id="layer2"
       inkscape:label="Image 2"
       style="display:inline;fill:none;stroke-width:2;stroke-dasharray:none">
      <g
         id="g1586"
         style="fill:none;stroke-width:2;stroke-dasharray:none" />
      <path
         id="path1669"
         style="fill:none;stroke:#000000;stroke-width:5;stroke-dasharray:none;stroke-dashoffset:0;stroke-opacity:1;fill-opacity:1"
         d="m 223.76632,239.4468 c 0,0 8.99319,10.51228 5.32263,20.12006 m -32.8612,-126.08684 c 0,0 9.60722,9.81451 7.55865,24.44886 M 209.56809,2.7909344 C 149.62032,2.9127094 93.581689,32.59415 59.759494,82.13859 89.677419,86.64232 208.93137,43.94132 208.93137,43.94133 l 151.25781,40.41406 c 0.77747,1.651927 -79.7529,27.30303 -163.4088,48.85475 -67.4859,17.38595 -137.005827,32.1041 -167.515025,29.40306 -0.965367,7.24408 -1.482969,14.54019 -1.572265,21.84766 34.430523,-3.19167 92.84143,-4.60621 176.08323,-26.50098 46.9733,-12.35521 101.8536,-31.23201 164.79372,-60.62988 0,0 7.5925,-2.69549 -61.95703,63.19531 l 79.9579,27.51499 c 0,0 -174.92465,68.32188 -337.750866,82.02603 3.59623,6.784 7.6417,13.28843 12.03515,19.52929 0.0367,-0.004 0.0609,-0.006 0.0977,-0.01 62.832146,-7.02215 120.321966,-8.66952 328.740236,-79.58594 1.13478,-8.22104 1.76761,-16.60328 1.76757,-25.13672 C 391.46107,84.30751 310.02456,2.7905414 209.56809,2.7909344 Z M 0,0 m 0,0 m 389.68139,210.09172 -102.23438,95.16992 c 0,0 -57.66619,33.36573 -141.38281,50.21093 19.77387,7.38328 41.15617,11.46274 63.50391,11.4629 91.89982,3.5e-4 167.83643,-68.23496 180.11328,-156.84375 z m -328.826176,79.5039 c -20.238266,2.25842 -27.962318,2.17389 -29.185542,1.03125 l 0.03052,0.0687 c 30.738982,50.33058 84.633538,69.90394 84.633538,69.90394 10.25158,-1.42122 20.12017,-3.1932 29.73047,-5.12696 M 55.208734,281.16982 c 0,0 -26.103653,7.06139 -23.539058,9.45703 M 27.693095,184.46086 c -0.189637,0.0176 -0.4544,0.0331 -0.642578,0.0508 -16.748524,1.57451 -22.9923404,1.41002 -23.6621114,0.43945 l -0.126953,0.043 c -3.817244,48.70326 19.4492204,86.83594 19.4492204,86.83594 8.631759,-0.4055 17.354241,-1.02682 26.109381,-1.76367 M 27.810277,176.59367 c 0,0 -25.8969254,6.21993 -24.4218764,8.35742 M 59.675262,82.120816 C 46.942279,80.673719 46.997073,77.444531 49.569754,75.298751 36.784538,84.363631 2.6175831,126.94945 13.577564,155.82609 c 1.469694,3.87225 7.073713,6.02449 15.687791,6.78711 M 49.644264,75.31047 c 0.6012,-0.42627 1.21342,-0.86598 1.71289,-1.13868 -0.68121,0.37 -1.24783,0.75078 -1.71289,1.13868 z m 20.243,-6.64454 c 0,0 -12.78517,2.38549 -18.53011,5.50586"
         inkscape:export-filename="path1669.svg"
         inkscape:export-xdpi="96"
         inkscape:export-ydpi="96" />
    </g>
  </g>
  <defs
     id="defs523">
    <inkscape:path-effect
       effect="fill_between_many"
       method="originald"
       linkedpaths="#path1367,0,1|#path1595,0,1|#path1597,0,1|#path1599,0,1"
       id="path-effect2141"
       is_visible="true"
       lpeversion="0"
       join="true"
       close="true"
       autoreverse="true" />
    <inkscape:path-effect
       effect="fill_between_many"
       method="originald"
       linkedpaths="#path4628,0,1|#path4626,0,1"
       id="path-effect4661"
       is_visible="true"
       lpeversion="0"
       join="true"
       close="true"
       autoreverse="true" />
    <inkscape:path-effect
       effect="fill_between_many"
       method="originald"
       linkedpaths="#path4626,0,1|#path4628,0,1|#path1669,0,1"
       id="path-effect4688"
       is_visible="true"
       lpeversion="0"
       join="true"
       close="true"
       autoreverse="true" />
  </defs>
  <sodipodi:namedview
     id="namedview521"
     pagecolor="#ffffff"
     bordercolor="#000000"
     borderopacity="0.25"
     inkscape:showpageshadow="2"
     inkscape:pageopacity="0.0"
     inkscape:pagecheckerboard="0"
     inkscape:deskcolor="#d1d1d1"
     showgrid="false"
     inkscape:zoom="1.145513"
     inkscape:cx="-35.791825"
     inkscape:cy="236.13875"
     inkscape:window-width="1920"
     inkscape:window-height="1018"
     inkscape:window-x="0"
     inkscape:window-y="0"
     inkscape:window-maximized="1"
     inkscape:current-layer="layer2" />
</svg>
